<?xml version="1.0" encoding="UTF-8"?>
<svg width="242px" height="225px" viewBox="0 0 242 225" version="1.1" xmlns="http://www.w3.org/2000/svg" xmlns:xlink="http://www.w3.org/1999/xlink">
    <title>pos</title>
    <defs>
        <filter x="-29.8%" y="-39.6%" width="159.5%" height="174.3%" filterUnits="objectBoundingBox" id="filter-1">
            <feOffset dx="16" dy="16" in="SourceAlpha" result="shadowOffsetOuter1"></feOffset>
            <feGaussianBlur stdDeviation="5" in="shadowOffsetOuter1" result="shadowBlurOuter1"></feGaussianBlur>
            <feColorMatrix values="0 0 0 0 0   0 0 0 0 0   0 0 0 0 0  0 0 0 0.12 0" type="matrix" in="shadowBlurOuter1" result="shadowMatrixOuter1"></feColorMatrix>
            <feMerge>
                <feMergeNode in="shadowMatrixOuter1"></feMergeNode>
                <feMergeNode in="SourceGraphic"></feMergeNode>
            </feMerge>
        </filter>
        <linearGradient x1="50%" y1="0%" x2="50%" y2="100%" id="linearGradient-2">
            <stop stop-color="#A0A9B7" offset="0%"></stop>
            <stop stop-color="#DBE1EB" offset="100%"></stop>
        </linearGradient>
        <path d="M4.77332811,0.195209143 L4.77332811,5.02435749 C4.77332811,7.49826377 3.15282797,8.9090496 0.315950769,8.9090496 L0.315950769,4.0805952" id="path-3"></path>
        <path d="M4.77332811,0.195209143 L4.77332811,5.02435749 C4.77332811,7.49826377 3.15282797,8.9090496 0.315950769,8.9090496 L0.315950769,4.0805952" id="path-5"></path>
        <path d="M4.77332811,0.195209143 L4.77332811,5.02435749 C4.77332811,7.49826377 3.15282797,8.9090496 0.315950769,8.9090496 L0.315950769,4.0805952" id="path-7"></path>
        <path d="M4.77332811,0.195209143 L4.77332811,5.02435749 C4.77332811,7.49826377 3.15282797,8.9090496 0.315950769,8.9090496 L0.315950769,4.0805952" id="path-9"></path>
        <path d="M5.63570241,0.0192331341 L5.63570241,4.84109535 C5.63570241,7.94502188 3.21822248,10.4550513 0.137270153,10.4550513 L0.137270153,5.63318912" id="path-11"></path>
        <path d="M5.63570241,0.0192331341 L5.63570241,4.84109535 C5.63570241,7.94502188 3.21822248,10.4550513 0.137270153,10.4550513 L0.137270153,5.63318912" id="path-13"></path>
        <path d="M5.63570241,0.0192331341 L5.63570241,4.84109535 C5.63570241,7.94502188 3.21822248,10.4550513 0.137270153,10.4550513 L0.137270153,5.63318912" id="path-15"></path>
        <path d="M5.63570241,0.0192331341 L5.63570241,4.84109535 C5.63570241,7.94502188 3.21822248,10.4550513 0.137270153,10.4550513 L0.137270153,5.63318912" id="path-17"></path>
        <path d="M0,0.0635848417 C0,3.14672152 2.39668141,5.63318912 5.46238151,5.63318912 L5.46238151,10.4550513 C2.39668141,10.4550513 0,7.96927672 0,4.88614005" id="path-19"></path>
        <path d="M71.1401721,55 L14.2113257,55 C11.8527996,55 10.0137149,53.1637741 10.1247774,50.9271785 L12.0487111,12.2028655 C12.1535651,10.086723 14.109231,8.36 16.395325,8.36 L71.5471713,8.36 C73.8325755,8.36 75.6923551,10.086723 75.68,12.2028655 L75.4529844,50.9271785 C75.4391878,53.1637741 73.4986982,55 71.1401721,55" id="path-21"></path>
        <filter x="-14.5%" y="-13.9%" width="125.9%" height="136.4%" filterUnits="objectBoundingBox" id="filter-22">
            <feMorphology radius="1" operator="dilate" in="SourceAlpha" result="shadowSpreadOuter1"></feMorphology>
            <feOffset dx="-1" dy="2" in="shadowSpreadOuter1" result="shadowOffsetOuter1"></feOffset>
            <feGaussianBlur stdDeviation="1.5" in="shadowOffsetOuter1" result="shadowBlurOuter1"></feGaussianBlur>
            <feColorMatrix values="0 0 0 0 0.345098039   0 0 0 0 0.360784314   0 0 0 0 0.458823529  0 0 0 0.1 0" type="matrix" in="shadowBlurOuter1"></feColorMatrix>
        </filter>
        <filter x="-11.4%" y="-9.6%" width="119.8%" height="127.9%" filterUnits="objectBoundingBox" id="filter-23">
            <feGaussianBlur stdDeviation="1" in="SourceAlpha" result="shadowBlurInner1"></feGaussianBlur>
            <feOffset dx="1" dy="-1" in="shadowBlurInner1" result="shadowOffsetInner1"></feOffset>
            <feComposite in="shadowOffsetInner1" in2="SourceAlpha" operator="arithmetic" k2="-1" k3="1" result="shadowInnerInner1"></feComposite>
            <feColorMatrix values="0 0 0 0 0.345098039   0 0 0 0 0.360784314   0 0 0 0 0.458823529  0 0 0 0.15 0" type="matrix" in="shadowInnerInner1"></feColorMatrix>
        </filter>
        <path d="M146.237218,106.04 L12.1358046,106.04 C9.70095339,106.04 7.80679754,104.064156 7.92526838,101.65575 L9.80082706,63.5483074 C9.91378763,61.2640822 11.9374349,59.4 14.2985862,59.4 L144.3837,59.4 C146.744851,59.4 148.7561,61.2640822 148.853908,63.5483074 L150.475994,101.65575 C150.579312,104.064156 148.67138,106.04 146.237218,106.04" id="path-24"></path>
        <filter x="-6.7%" y="-13.9%" width="111.9%" height="136.4%" filterUnits="objectBoundingBox" id="filter-25">
            <feMorphology radius="1" operator="dilate" in="SourceAlpha" result="shadowSpreadOuter1"></feMorphology>
            <feOffset dx="-1" dy="2" in="shadowSpreadOuter1" result="shadowOffsetOuter1"></feOffset>
            <feGaussianBlur stdDeviation="1.5" in="shadowOffsetOuter1" result="shadowBlurOuter1"></feGaussianBlur>
            <feColorMatrix values="0 0 0 0 0.345098039   0 0 0 0 0.360784314   0 0 0 0 0.458823529  0 0 0 0.1 0" type="matrix" in="shadowBlurOuter1"></feColorMatrix>
        </filter>
        <filter x="-5.3%" y="-9.6%" width="109.1%" height="127.9%" filterUnits="objectBoundingBox" id="filter-26">
            <feGaussianBlur stdDeviation="1" in="SourceAlpha" result="shadowBlurInner1"></feGaussianBlur>
            <feOffset dx="1" dy="-1" in="shadowBlurInner1" result="shadowOffsetInner1"></feOffset>
            <feComposite in="shadowOffsetInner1" in2="SourceAlpha" operator="arithmetic" k2="-1" k3="1" result="shadowInnerInner1"></feComposite>
            <feColorMatrix values="0 0 0 0 0.345098039   0 0 0 0 0.360784314   0 0 0 0 0.458823529  0 0 0 0.15 0" type="matrix" in="shadowInnerInner1"></feColorMatrix>
        </filter>
        <path d="M144.476641,55 L84.0466664,55 C81.6153883,55 79.6330894,53.116551 79.64,50.8210976 L79.7619631,12.3034713 C79.7681989,10.1312085 81.701304,8.36 84.0563665,8.36 L142.600351,8.36 C144.955414,8.36 146.959192,10.1312085 147.053422,12.3034713 L148.716308,50.8210976 C148.815388,53.116551 146.907919,55 144.476641,55" id="path-27"></path>
        <filter x="-13.8%" y="-13.9%" width="124.6%" height="136.4%" filterUnits="objectBoundingBox" id="filter-28">
            <feMorphology radius="1" operator="dilate" in="SourceAlpha" result="shadowSpreadOuter1"></feMorphology>
            <feOffset dx="-1" dy="2" in="shadowSpreadOuter1" result="shadowOffsetOuter1"></feOffset>
            <feGaussianBlur stdDeviation="1.5" in="shadowOffsetOuter1" result="shadowBlurOuter1"></feGaussianBlur>
            <feColorMatrix values="0 0 0 0 0.345098039   0 0 0 0 0.360784314   0 0 0 0 0.458823529  0 0 0 0.1 0" type="matrix" in="shadowBlurOuter1"></feColorMatrix>
        </filter>
        <filter x="-10.9%" y="-9.6%" width="118.8%" height="127.9%" filterUnits="objectBoundingBox" id="filter-29">
            <feGaussianBlur stdDeviation="1" in="SourceAlpha" result="shadowBlurInner1"></feGaussianBlur>
            <feOffset dx="1" dy="-1" in="shadowBlurInner1" result="shadowOffsetInner1"></feOffset>
            <feComposite in="shadowOffsetInner1" in2="SourceAlpha" operator="arithmetic" k2="-1" k3="1" result="shadowInnerInner1"></feComposite>
            <feColorMatrix values="0 0 0 0 0.345098039   0 0 0 0 0.360784314   0 0 0 0 0.458823529  0 0 0 0.15 0" type="matrix" in="shadowInnerInner1"></feColorMatrix>
        </filter>
        <linearGradient x1="50%" y1="0%" x2="50%" y2="100%" id="linearGradient-30">
            <stop stop-color="#3456FF" offset="0%"></stop>
            <stop stop-color="#6762FF" offset="100%"></stop>
        </linearGradient>
        <path d="M33.5154187,97.8706513 C33.7823357,89.9702746 34.0505871,82.0698979 34.3175041,74.1688312 C34.4676448,69.7272847 27.794722,69.7334957 27.6445813,74.1688312 C27.3776643,82.0698979 27.1094129,89.9702746 26.8424959,97.8706513 C26.6923552,102.312888 33.365278,102.306677 33.5154187,97.8706513" id="path-31"></path>
        <filter x="-60.2%" y="-21.4%" width="340.6%" height="156.0%" filterUnits="objectBoundingBox" id="filter-32">
            <feOffset dx="5" dy="2" in="SourceAlpha" result="shadowOffsetOuter1"></feOffset>
            <feGaussianBlur stdDeviation="2" in="shadowOffsetOuter1" result="shadowBlurOuter1"></feGaussianBlur>
            <feColorMatrix values="0 0 0 0 0.788235294   0 0 0 0 0.803921569   0 0 0 0 0.901960784  0 0 0 0.6 0" type="matrix" in="shadowBlurOuter1"></feColorMatrix>
        </filter>
        <linearGradient x1="50%" y1="0%" x2="50%" y2="100%" id="linearGradient-33">
            <stop stop-color="#00E096" offset="0%"></stop>
            <stop stop-color="#5AF4BC" offset="100%"></stop>
        </linearGradient>
        <path d="M43.987899,97.7776004 C44.1382587,92.4325335 44.2886184,87.0874665 44.4382755,81.7423996 C44.5661516,77.1774274 37.539996,77.1809732 37.4121199,81.7423996 C37.2624628,87.0874665 37.1121031,92.4325335 36.9617434,97.7776004 C36.8331647,102.342573 43.8593203,102.339027 43.987899,97.7776004" id="path-34"></path>
        <filter x="-60.2%" y="-28.4%" width="340.6%" height="174.3%" filterUnits="objectBoundingBox" id="filter-35">
            <feOffset dx="5" dy="2" in="SourceAlpha" result="shadowOffsetOuter1"></feOffset>
            <feGaussianBlur stdDeviation="2" in="shadowOffsetOuter1" result="shadowBlurOuter1"></feGaussianBlur>
            <feColorMatrix values="0 0 0 0 0.788235294   0 0 0 0 0.803921569   0 0 0 0 0.901960784  0 0 0 0.6 0" type="matrix" in="shadowBlurOuter1"></feColorMatrix>
        </filter>
        <linearGradient x1="50%" y1="0%" x2="50%" y2="100%" id="linearGradient-36">
            <stop stop-color="#3456FF" offset="0%"></stop>
            <stop stop-color="#6762FF" offset="100%"></stop>
        </linearGradient>
        <path d="M62.4762093,97.8298879 C62.6239577,88.6363094 62.7717062,79.4434289 62.9194547,70.2498504 C62.9912183,65.7574146 55.9555758,65.7560186 55.8838123,70.2498504 C55.7360638,79.4434289 55.5883153,88.6363094 55.4405668,97.8298879 C55.3673961,102.323022 62.4030386,102.32372 62.4762093,97.8298879" id="path-37"></path>
        <filter x="-60.2%" y="-18.9%" width="340.6%" height="149.5%" filterUnits="objectBoundingBox" id="filter-38">
            <feOffset dx="5" dy="2" in="SourceAlpha" result="shadowOffsetOuter1"></feOffset>
            <feGaussianBlur stdDeviation="2" in="shadowOffsetOuter1" result="shadowBlurOuter1"></feGaussianBlur>
            <feColorMatrix values="0 0 0 0 0.788235294   0 0 0 0 0.803921569   0 0 0 0 0.901960784  0 0 0 0.6 0" type="matrix" in="shadowBlurOuter1"></feColorMatrix>
        </filter>
        <linearGradient x1="50%" y1="0%" x2="50%" y2="100%" id="linearGradient-39">
            <stop stop-color="#00E096" offset="0%"></stop>
            <stop stop-color="#5AF4BC" offset="100%"></stop>
        </linearGradient>
        <path d="M73.3173623,97.7782964 C73.3707776,92.1397569 73.4249245,86.5005089 73.4798032,80.8619694 C73.5237062,76.3011151 66.2065473,76.2975724 66.1626443,80.8619694 C66.1077656,86.5005089 66.0536186,92.1397569 66.0002034,97.7782964 C65.9555687,102.339151 73.2727276,102.341985 73.3173623,97.7782964" id="path-40"></path>
        <filter x="-60.2%" y="-27.4%" width="340.6%" height="171.5%" filterUnits="objectBoundingBox" id="filter-41">
            <feOffset dx="5" dy="2" in="SourceAlpha" result="shadowOffsetOuter1"></feOffset>
            <feGaussianBlur stdDeviation="2" in="shadowOffsetOuter1" result="shadowBlurOuter1"></feGaussianBlur>
            <feColorMatrix values="0 0 0 0 0.788235294   0 0 0 0 0.803921569   0 0 0 0 0.901960784  0 0 0 0.6 0" type="matrix" in="shadowBlurOuter1"></feColorMatrix>
        </filter>
        <linearGradient x1="50%" y1="0%" x2="50%" y2="100%" id="linearGradient-42">
            <stop stop-color="#3456FF" offset="0%"></stop>
            <stop stop-color="#6762FF" offset="100%"></stop>
        </linearGradient>
        <path d="M92.84,97.7908392 C92.8199442,91.5569464 92.7999106,85.3230536 92.779877,79.0891608 C92.7642953,74.547849 85.3444428,74.5393791 85.36,79.0891608 C85.3800581,85.3230536 85.4000917,91.5569464 85.4201253,97.7908392 C85.434965,102.332151 92.8548175,102.340621 92.84,97.7908392" id="path-43"></path>
        <filter x="-60.2%" y="-25.5%" width="340.6%" height="166.6%" filterUnits="objectBoundingBox" id="filter-44">
            <feOffset dx="5" dy="2" in="SourceAlpha" result="shadowOffsetOuter1"></feOffset>
            <feGaussianBlur stdDeviation="2" in="shadowOffsetOuter1" result="shadowBlurOuter1"></feGaussianBlur>
            <feColorMatrix values="0 0 0 0 0.788235294   0 0 0 0 0.803921569   0 0 0 0 0.901960784  0 0 0 0.6 0" type="matrix" in="shadowBlurOuter1"></feColorMatrix>
        </filter>
        <linearGradient x1="50%" y1="0%" x2="50%" y2="100%" id="linearGradient-45">
            <stop stop-color="#00E096" offset="0%"></stop>
            <stop stop-color="#5AF4BC" offset="100%"></stop>
        </linearGradient>
        <path d="M102.959794,97.8224116 C102.857924,87.6076454 102.756053,77.3921798 102.654183,67.178113 C102.609704,62.6795593 95.4357273,62.6683689 95.480206,67.178113 C95.5820764,77.3921798 95.6839469,87.6076454 95.7858174,97.8224116 C95.830296,102.320266 103.004273,102.331456 102.959794,97.8224116" id="path-46"></path>
        <filter x="-60.2%" y="-17.4%" width="340.6%" height="145.5%" filterUnits="objectBoundingBox" id="filter-47">
            <feOffset dx="5" dy="2" in="SourceAlpha" result="shadowOffsetOuter1"></feOffset>
            <feGaussianBlur stdDeviation="2" in="shadowOffsetOuter1" result="shadowBlurOuter1"></feGaussianBlur>
            <feColorMatrix values="0 0 0 0 0.788235294   0 0 0 0 0.803921569   0 0 0 0 0.901960784  0 0 0 0.6 0" type="matrix" in="shadowBlurOuter1"></feColorMatrix>
        </filter>
        <path d="M121.878958,97.8360623 C121.705053,89.9582229 121.531149,82.0817771 121.357244,74.2039377 C121.258466,69.7267047 114.301583,69.7106773 114.401057,74.2039377 C114.574961,82.0817771 114.748866,89.9582229 114.922771,97.8360623 C115.021549,102.313295 121.977736,102.329323 121.878958,97.8360623" id="path-48"></path>
        <filter x="-60.2%" y="-21.4%" width="340.6%" height="156.0%" filterUnits="objectBoundingBox" id="filter-49">
            <feOffset dx="5" dy="2" in="SourceAlpha" result="shadowOffsetOuter1"></feOffset>
            <feGaussianBlur stdDeviation="2" in="shadowOffsetOuter1" result="shadowBlurOuter1"></feGaussianBlur>
            <feColorMatrix values="0 0 0 0 0.788235294   0 0 0 0 0.803921569   0 0 0 0 0.901960784  0 0 0 0.6 0" type="matrix" in="shadowBlurOuter1"></feColorMatrix>
        </filter>
        <linearGradient x1="50%" y1="0%" x2="50%" y2="100%" id="linearGradient-50">
            <stop stop-color="#00E096" offset="0%"></stop>
            <stop stop-color="#5AF4BC" offset="100%"></stop>
        </linearGradient>
        <path d="M131.998194,97.7642275 C131.855149,92.7211125 131.712104,87.6787095 131.568355,82.6363065 C131.437994,78.0638252 124.39074,78.0453132 124.521806,82.6363065 C124.665555,87.6787095 124.8086,92.7211125 124.951645,97.7642275 C125.082006,102.335997 132.12926,102.354509 131.998194,97.7642275" id="path-51"></path>
        <filter x="-60.2%" y="-29.5%" width="340.6%" height="177.3%" filterUnits="objectBoundingBox" id="filter-52">
            <feOffset dx="5" dy="2" in="SourceAlpha" result="shadowOffsetOuter1"></feOffset>
            <feGaussianBlur stdDeviation="2" in="shadowOffsetOuter1" result="shadowBlurOuter1"></feGaussianBlur>
            <feColorMatrix values="0 0 0 0 0.788235294   0 0 0 0 0.803921569   0 0 0 0 0.901960784  0 0 0 0.6 0" type="matrix" in="shadowBlurOuter1"></feColorMatrix>
        </filter>
        <path d="M114.446781,16.6481678 C115.475749,17.0734871 115.989632,18.2181653 115.64669,19.2589002 L115.591832,19.4067807 L114.615,21.7674467 L116.28,21.768 C117.446425,21.768 118.392,22.7135746 118.392,23.88 C118.392,24.9957112 117.526862,25.9093586 116.43083,25.9866971 L116.28,25.992 L112.869,25.9914467 L110.135674,32.6067807 C109.457818,34.2467095 107.207201,34.3546358 106.353665,32.8550578 L106.275526,32.7049166 L103.58,27.0224467 L101.073189,32.6586129 C100.349542,34.2848924 98.0876274,34.3264742 97.280456,32.7957074 L97.2069844,32.6426606 L94.312,25.9914467 L90.76,25.992 C89.5935746,25.992 88.648,25.0464254 88.648,23.88 C88.648,22.7642888 89.5131382,21.8506414 90.6091696,21.7733029 L90.76,21.768 L92.475,21.7674467 L91.4633877,19.4426606 C90.9979991,18.3730992 91.487778,17.1287763 92.5573394,16.6633877 C93.5782844,16.2191532 94.7584645,16.6452261 95.2684117,17.6151191 L95.3366123,17.7573394 L99.165,26.556 L101.590407,21.1061328 L101.606506,21.0706963 C101.644097,20.9901256 101.686791,20.9118272 101.734397,20.8363366 C101.746178,20.8176236 101.758462,20.7988014 101.77101,20.7802268 C101.788509,20.7543755 101.806625,20.7288132 101.825328,20.7036344 C101.837512,20.6871777 101.849549,20.6714535 101.861782,20.6559312 C101.878084,20.6352906 101.895261,20.6143213 101.912866,20.5936619 C101.93493,20.5677398 101.95732,20.5427319 101.980238,20.5183334 C101.98998,20.5079716 101.999789,20.4977351 102.009709,20.4875893 C102.032666,20.464101 102.056874,20.4405064 102.081586,20.4175534 C102.097668,20.4025796 102.113981,20.387892 102.130553,20.3734373 C102.150323,20.3562485 102.170087,20.3396523 102.190124,20.3234435 C102.212295,20.3054512 102.235314,20.2875979 102.258771,20.270179 C102.276936,20.2567232 102.295314,20.2435248 102.313885,20.2306344 C102.334112,20.2165856 102.354401,20.2030279 102.374983,20.189787 C102.400104,20.1736102 102.425512,20.1580046 102.451221,20.1429512 C102.475493,20.1287787 102.500671,20.1147116 102.526235,20.1011053 C102.54115,20.0931131 102.555502,20.0856885 102.569933,20.0784303 C102.584416,20.0711955 102.599685,20.0637315 102.615083,20.0564296 L102.665957,20.0331085 C102.684249,20.0250278 102.702652,20.0172063 102.721161,20.0096464 L102.615083,20.0564296 C102.681063,20.0251423 102.747849,19.9975743 102.815203,19.9736411 C102.832808,19.9675781 102.850124,19.961699 102.867514,19.9560438 C102.89929,19.9454506 102.931365,19.9358289 102.963528,19.9270052 C102.982331,19.9221564 103.001647,19.9171557 103.021037,19.912427 C103.051113,19.9047618 103.080796,19.8982042 103.110521,19.8923081 C103.136839,19.8874154 103.163501,19.8826485 103.190266,19.8783928 C103.215447,19.8740981 103.240464,19.8706002 103.265488,19.8675597 C103.285865,19.8653196 103.306504,19.8631005 103.327189,19.8611855 C103.361925,19.8578144 103.396289,19.8555301 103.430618,19.8540918 C103.452073,19.85324 103.474146,19.8526292 103.496249,19.8523669 C103.520222,19.8521182 103.54386,19.8522706 103.567462,19.8528196 C103.605298,19.8535676 103.64298,19.8554147 103.680687,19.8582902 C103.692711,19.8594321 103.705038,19.8604914 103.717349,19.8616583 C103.752609,19.8647261 103.78765,19.8689119 103.822671,19.8740006 C103.846062,19.8777255 103.869431,19.8815327 103.892718,19.8857278 C103.91291,19.8890302 103.93294,19.8929398 103.952951,19.8971506 C103.983992,19.9040043 104.015006,19.9112554 104.045831,19.9191968 C104.072864,19.925891 104.099835,19.933431 104.12674,19.9415363 C104.146324,19.9476392 104.165648,19.953746 104.184879,19.9601275 C104.200491,19.965165 104.216385,19.9706646 104.23225,19.9763663 L104.274733,19.9922001 C104.296928,20.0006887 104.318983,20.0095503 104.340886,20.018781 L104.378613,20.035153 L104.416157,20.0522358 C104.437023,20.061999 104.457736,20.0721047 104.478287,20.0825495 L104.378613,20.035153 C104.442554,20.0636049 104.504385,20.0948437 104.564026,20.1286626 C104.581867,20.1387562 104.599549,20.1491318 104.617086,20.1597686 C104.64264,20.1752692 104.667555,20.1911022 104.692045,20.2073934 C104.715416,20.2229649 104.738874,20.2392651 104.762018,20.2560563 C104.781349,20.2700378 104.800232,20.2842316 104.818828,20.2987062 C104.842076,20.3168525 104.864866,20.3353699 104.887293,20.3543891 C104.903644,20.3682168 104.919835,20.3823859 104.935778,20.3967759 C104.959427,20.4181434 104.982472,20.4399019 105.005059,20.4622241 C105.021537,20.4785253 105.037488,20.4948262 105.053148,20.5113588 C105.0728,20.5320779 105.091773,20.5529313 105.110361,20.5742134 C105.12506,20.5910891 105.139805,20.6085343 105.154247,20.6261953 C105.174512,20.6509281 105.193939,20.6758143 105.212855,20.7012144 C105.225438,20.7181589 105.237789,20.7352683 105.249872,20.7525461 C105.264506,20.7734496 105.278809,20.7947232 105.292762,20.8163212 C105.309031,20.8414733 105.324895,20.8671983 105.340191,20.8932328 C105.345369,20.9021172 105.350486,20.9109795 105.355547,20.9198913 L105.374688,20.9542342 C105.388379,20.9794068 105.401554,21.0048443 105.414204,21.0305287 L105.428316,21.0598291 L108.051,26.591 L111.688168,17.7932193 C112.13374,16.7152522 113.368813,16.2025951 114.446781,16.6481678 Z" id="path-53"></path>
        <filter x="-15.1%" y="-25.8%" width="160.5%" height="203.3%" filterUnits="objectBoundingBox" id="filter-54">
            <feOffset dx="5" dy="5" in="SourceAlpha" result="shadowOffsetOuter1"></feOffset>
            <feGaussianBlur stdDeviation="2" in="shadowOffsetOuter1" result="shadowBlurOuter1"></feGaussianBlur>
            <feColorMatrix values="0 0 0 0 0.788235294   0 0 0 0 0.803921569   0 0 0 0 0.901960784  0 0 0 0.6 0" type="matrix" in="shadowBlurOuter1"></feColorMatrix>
        </filter>
        <filter x="-67.1%" y="-75.0%" width="234.2%" height="250.0%" filterUnits="objectBoundingBox" id="filter-55">
            <feOffset dx="3" dy="8" in="SourceAlpha" result="shadowOffsetOuter1"></feOffset>
            <feGaussianBlur stdDeviation="2.5" in="shadowOffsetOuter1" result="shadowBlurOuter1"></feGaussianBlur>
            <feColorMatrix values="0 0 0 0 0.788235294   0 0 0 0 0.803921569   0 0 0 0 0.901960784  0 0 0 0.5 0" type="matrix" in="shadowBlurOuter1" result="shadowMatrixOuter1"></feColorMatrix>
            <feMerge>
                <feMergeNode in="shadowMatrixOuter1"></feMergeNode>
                <feMergeNode in="SourceGraphic"></feMergeNode>
            </feMerge>
        </filter>
        <path d="M0.031833,0.100602 L1.407456,4.683825 C1.691037,4.664871 1.970973,4.65831 2.246535,4.661226 L2.246535,4.661226 C2.336931,4.661955 2.424411,4.669245 2.514078,4.673619 L2.514078,4.673619 C2.697786,4.680909 2.880036,4.68747 3.057912,4.704237 L3.057912,4.704237 C3.160701,4.714443 3.261303,4.728294 3.362634,4.741416 L3.362634,4.741416 C3.522285,4.761099 3.681936,4.783698 3.837213,4.8114 L3.837213,4.8114 C3.94146,4.829625 4.04352,4.850766 4.144851,4.873365 L4.144851,4.873365 C4.292838,4.904712 4.439367,4.938975 4.581522,4.977612 L4.581522,4.977612 C4.682124,5.004585 4.780539,5.033745 4.877496,5.063634 L4.877496,5.063634 C5.017464,5.106645 5.154516,5.15403 5.289381,5.204331 L5.289381,5.204331 C5.381964,5.238594 5.474547,5.272128 5.563485,5.310036 L5.563485,5.310036 C5.699808,5.36544 5.830299,5.427405 5.960061,5.48937 L5.960061,5.48937 C6.04098,5.528736 6.124086,5.565915 6.202818,5.607468 L6.202818,5.607468 C6.340599,5.681097 6.471819,5.760558 6.60231,5.841477 L6.60231,5.841477 C6.664275,5.880114 6.729885,5.915106 6.790392,5.95593 L6.790392,5.95593 C6.977745,6.080589 7.15635,6.21108 7.324749,6.351048 L7.324749,6.351048 L5.949855,1.767096 C5.782185,1.627857 5.602851,1.497366 5.416956,1.372707 L5.416956,1.372707 C5.35572,1.331883 5.289381,1.295433 5.226687,1.256796 L5.226687,1.256796 C5.096925,1.177335 4.965705,1.097145 4.828653,1.024974 L4.828653,1.024974 C4.749192,0.982692 4.666815,0.944784 4.585896,0.905418 L4.585896,0.905418 C4.456134,0.842724 4.324914,0.782217 4.190049,0.726084 L4.190049,0.726084 C4.100382,0.688905 4.007799,0.653913 3.915216,0.61965 L3.915216,0.61965 C3.779622,0.570078 3.643299,0.523422 3.503331,0.480411 L3.503331,0.480411 C3.406374,0.449793 3.30723,0.422091 3.207357,0.394389 L3.207357,0.394389 C3.064473,0.356481 2.917944,0.321489 2.770686,0.290142 L2.770686,0.290142 C2.668626,0.267543 2.566566,0.245673 2.463048,0.226719 L2.463048,0.226719 C2.307771,0.199017 2.14812,0.178605 1.98774,0.158193 L1.98774,0.158193 C1.886409,0.1458 1.786536,0.130491 1.683747,0.121014 L1.683747,0.121014 C1.505871,0.104976 1.322892,0.096228 1.139913,0.089667 L1.139913,0.089667 C1.050246,0.086751 0.962766,0.079461 0.87237,0.078003 L0.87237,0.078003 C0.854874,0.078003 0.838107,0.075087 0.820611,0.075087 L0.820611,0.075087 C0.802386,0.075087 0.784161,0.075087 0.765207,0.075087 L0.765207,0.075087 C0.524637,0.075087 0.279693,0.083106 0.031833,0.100602" id="path-56"></path>
        <linearGradient x1="33.9712335%" y1="-28.4848228%" x2="55.4642083%" y2="76.9344823%" id="linearGradient-58">
            <stop stop-color="#00DF95" offset="0%"></stop>
            <stop stop-color="#60F4BD" offset="100%"></stop>
        </linearGradient>
        <polygon id="path-59" points="0.0323433 0.018549 12.9407463 0.018549 12.9407463 9.1987731 0.0323433 9.1987731"></polygon>
        <path d="M8.926362,0.114453 C8.852733,0.121014 8.779104,0.128304 8.704746,0.136323 L8.704746,0.136323 C8.623827,0.1458 8.545095,0.163296 8.463447,0.173502 L8.463447,0.173502 C8.259327,0.199746 8.055207,0.230364 7.854732,0.266814 L7.854732,0.266814 C7.802973,0.27702 7.749756,0.281394 7.697997,0.2916 L7.697997,0.2916 C7.62291,0.30618 7.550739,0.329508 7.476381,0.345546 L7.476381,0.345546 C7.314543,0.381267 7.154892,0.419175 6.995241,0.461457 L6.995241,0.461457 C6.931818,0.479682 6.865479,0.491346 6.802785,0.508842 L6.802785,0.508842 C6.737175,0.527796 6.674481,0.552582 6.611058,0.572994 L6.611058,0.572994 C6.462342,0.618192 6.317271,0.666306 6.171471,0.717336 L6.171471,0.717336 C6.103674,0.741393 6.031503,0.760347 5.963706,0.785862 L5.963706,0.785862 C5.907573,0.807732 5.854356,0.833976 5.797494,0.855846 L5.797494,0.855846 C5.650965,0.913437 5.506623,0.974673 5.363739,1.038096 L5.363739,1.038096 C5.291568,1.069443 5.21721,1.095687 5.147226,1.128492 L5.147226,1.128492 C5.102028,1.149633 5.061933,1.175148 5.018193,1.19556 L5.018193,1.19556 C4.853439,1.275021 4.694517,1.360314 4.534866,1.446336 L4.534866,1.446336 C4.464882,1.485702 4.390524,1.518507 4.321269,1.557873 L4.321269,1.557873 C4.295754,1.571724 4.273884,1.589949 4.248369,1.6038 L4.248369,1.6038 C3.976452,1.76418 3.711096,1.93185 3.46032,2.110455 L3.46032,2.110455 C3.456675,2.113371 3.45303,2.115558 3.450114,2.117016 L3.450114,2.117016 C3.440637,2.123577 3.432618,2.132325 3.422412,2.139615 L3.422412,2.139615 C3.111858,2.364147 2.821716,2.606175 2.545425,2.85768 L2.545425,2.85768 C2.514078,2.886111 2.47617,2.910897 2.444094,2.940786 L2.444094,2.940786 C2.422953,2.961198 2.405457,2.983797 2.383587,3.004938 L2.383587,3.004938 C2.152494,3.225825 1.933065,3.454002 1.73259,3.693114 L1.73259,3.693114 C1.701243,3.729564 1.675728,3.768201 1.644381,3.806109 L1.644381,3.806109 C1.475982,4.013145 1.321434,4.226013 1.177092,4.443984 L1.177092,4.443984 C1.130436,4.516155 1.08378,4.588326 1.039311,4.661226 L1.039311,4.661226 C0.900072,4.890132 0.772497,5.121954 0.663147,5.360337 L0.663147,5.360337 C0.647109,5.393871 0.628155,5.426676 0.613575,5.46021 L0.613575,5.46021 C0.494019,5.728482 0.399978,6.001857 0.319788,6.280335 L0.319788,6.280335 C0.312498,6.308766 0.297189,6.336468 0.289899,6.366357 L0.289899,6.366357 C0.26001,6.474978 0.240327,6.584328 0.217728,6.695136 L0.217728,6.695136 C0.207522,6.745437 0.193671,6.795738 0.184923,6.846768 L0.184923,6.846768 C0.15066,7.039224 0.122958,7.233138 0.110565,7.42851 L0.110565,7.42851 C0.108378,7.45038 0.107649,7.472979 0.106191,7.495578 L0.106191,7.495578 C0.090882,7.752915 0.095256,8.005149 0.117126,8.250822 L0.117126,8.250822 C0.119313,8.276337 0.126603,8.301123 0.12879,8.327367 L0.12879,8.327367 C0.137538,8.409015 0.155034,8.487018 0.168156,8.568666 L0.168156,8.568666 C0.18711,8.696241 0.200961,8.82819 0.230121,8.952849 L0.230121,8.952849 C0.25272,9.046161 0.277506,9.138744 0.304479,9.229869 L0.304479,9.229869 L1.678644,13.813821 C1.615221,13.600224 1.577313,13.376421 1.54305,13.151889 L1.54305,13.151889 C1.530657,13.071699 1.512432,12.992967 1.503684,12.91059 L1.503684,12.91059 C1.475253,12.640131 1.464318,12.36384 1.480356,12.07953 L1.480356,12.07953 C1.493478,11.861559 1.519722,11.645775 1.558359,11.431449 L1.558359,11.431449 C1.567836,11.37969 1.581687,11.329389 1.591893,11.278359 L1.591893,11.278359 C1.621053,11.138391 1.656045,11.001339 1.694682,10.863558 L1.694682,10.863558 C1.774143,10.585809 1.868184,10.310976 1.987011,10.042704 L1.987011,10.042704 C2.00232,10.00917 2.022003,9.977823 2.037312,9.944289 L2.037312,9.944289 C2.147391,9.705906 2.274966,9.473355 2.413476,9.245178 L2.413476,9.245178 C2.458674,9.172278 2.503872,9.100107 2.551986,9.027936 L2.551986,9.027936 C2.695599,8.809965 2.850876,8.596368 3.020004,8.389332 L3.020004,8.389332 C3.049164,8.352153 3.075408,8.313516 3.107484,8.275608 L3.107484,8.275608 C3.307959,8.038683 3.526659,7.809048 3.758481,7.588161 L3.758481,7.588161 C3.81024,7.53786 3.866373,7.489746 3.91959,7.440903 L3.91959,7.440903 C4.195881,7.189398 4.486023,6.94737 4.797306,6.722838 L4.797306,6.722838 C4.810428,6.713361 4.821363,6.703155 4.833756,6.694407 L4.833756,6.694407 C5.086719,6.515073 5.351346,6.347403 5.623263,6.188481 L5.623263,6.188481 C5.716575,6.133077 5.813532,6.082776 5.909031,6.030288 L5.909031,6.030288 C6.067953,5.944266 6.228333,5.858244 6.393087,5.779512 L6.393087,5.779512 C6.506082,5.724108 6.621993,5.672349 6.737175,5.622048 L6.737175,5.622048 C6.880788,5.557896 7.02513,5.49666 7.173117,5.439069 L7.173117,5.439069 C7.29486,5.390226 7.420248,5.345028 7.545636,5.301288 L7.545636,5.301288 C7.691436,5.250258 7.837236,5.201415 7.984494,5.156217 L7.984494,5.156217 C8.112069,5.11758 8.239644,5.080401 8.369406,5.046138 L8.369406,5.046138 C8.528328,5.003127 8.689437,4.965219 8.850546,4.928769 L8.850546,4.928769 C8.975934,4.901067 9.102051,4.874823 9.228897,4.850766 L9.228897,4.850766 C9.43083,4.812858 9.633492,4.783698 9.838341,4.757454 L9.838341,4.757454 C9.99216,4.737042 10.144521,4.711527 10.301256,4.698405 L10.301256,4.698405 C10.37124,4.692573 10.449243,4.685283 10.519956,4.683825 L10.519956,4.683825 L9.144333,0.100602 C9.074349,0.101331 8.997075,0.107892 8.926362,0.114453" id="path-61"></path>
        <linearGradient x1="0.000363132102%" y1="49.9987172%" x2="99.9946767%" y2="49.9987172%" id="linearGradient-63">
            <stop stop-color="#183AEF" offset="0%"></stop>
            <stop stop-color="#627CE9" offset="100%"></stop>
        </linearGradient>
        <path d="M1.391499,4.650048 C2.220372,5.333121 2.81961,6.193341 3.114126,7.176033 L3.114126,7.176033 L1.74069,2.592081 C1.445445,1.609389 0.845478,0.749169 0.017334,0.066096 L0.017334,0.066096 L1.391499,4.650048 Z" id="path-64"></path>
        <linearGradient x1="-0.0105437853%" y1="50.0032749%" x2="100.008879%" y2="50.0032749%" id="linearGradient-66">
            <stop stop-color="#E4E8F2" offset="0%"></stop>
            <stop stop-color="#E4E8F2" offset="100%"></stop>
        </linearGradient>
        <path d="M0.017334,0.066096 L0.191273028,0.215160294 C0.304866849,0.316317546 0.413692416,0.421010341 0.517526564,0.529079277 L0.669489324,0.693393061 C1.16338151,1.25040857 1.52959243,1.89036643 1.739961,2.59281 L3.114126,7.176033 C2.9581098,6.65507791 2.71637735,6.1689003 2.40041589,5.72530282 C2.26829029,5.53959972 2.12317854,5.36149791 1.96588231,5.19142211 C1.78935989,5.00077228 1.59748804,4.81995269 1.391499,4.650048" id="path-67"></path>
        <linearGradient x1="43.8556854%" y1="-44.5321584%" x2="79.5820426%" y2="88.7282372%" id="linearGradient-69">
            <stop stop-color="#9D51FF" offset="0%"></stop>
            <stop stop-color="#FBFBFB" offset="100%"></stop>
        </linearGradient>
        <path d="M1.449252,4.680666 C2.176794,7.106778 3.774033,9.179325 5.990193,10.714599 L5.990193,10.714599 L4.616757,6.132105 C2.399868,4.595373 0.8019,2.522826 0.074358,0.096714 L0.074358,0.096714 L1.449252,4.680666 Z" id="path-70"></path>
        <linearGradient x1="0.0103265558%" y1="50.003286%" x2="100.007198%" y2="50.003286%" id="linearGradient-72">
            <stop stop-color="#183AEF" offset="0%"></stop>
            <stop stop-color="#627CE9" offset="100%"></stop>
        </linearGradient>
        <path d="M30.563082,0.808461 C30.584952,0.906147 30.603177,1.00602 30.622131,1.105164 L30.622131,1.105164 C30.656394,1.287414 30.687012,1.47258 30.711798,1.659933 L30.711798,1.659933 C30.725649,1.760535 30.738771,1.861137 30.748977,1.963197 L30.748977,1.963197 C30.770118,2.159298 30.782511,2.357586 30.791988,2.558061 L30.791988,2.558061 C30.797091,2.652102 30.804381,2.746872 30.806568,2.841642 L30.806568,2.841642 C30.813129,3.136887 30.810942,3.43359 30.793446,3.735396 L30.793446,3.735396 C30.788343,3.822876 30.777408,3.910356 30.770118,3.996378 L30.770118,3.996378 C30.746061,4.298913 30.709611,4.59999 30.661497,4.89888 L30.661497,4.89888 C30.652749,4.9572 30.645459,5.016249 30.635253,5.07384 L30.635253,5.07384 C30.577662,5.40189 30.505491,5.728482 30.420927,6.052158 L30.420927,6.052158 C30.401244,6.129432 30.379374,6.205977 30.357504,6.282522 L30.357504,6.282522 C30.290436,6.520905 30.216807,6.75783 30.135888,6.992568 L30.135888,6.992568 C30.11256,7.058178 30.092148,7.124517 30.06882,7.190127 L30.06882,7.190127 C29.964573,7.478811 29.848662,7.764579 29.723274,8.04816 L29.723274,8.04816 C29.696301,8.110854 29.664954,8.17209 29.636523,8.234055 L29.636523,8.234055 C29.530818,8.465148 29.417823,8.694054 29.298267,8.920773 L29.298267,8.920773 C29.258901,8.996589 29.220264,9.072405 29.178711,9.146763 L29.178711,9.146763 C29.027808,9.423783 28.868157,9.698616 28.696842,9.969804 L28.696842,9.969804 C28.68372,9.990945 28.668411,10.012086 28.65456,10.032498 L28.65456,10.032498 C28.49418,10.284732 28.324323,10.532592 28.147905,10.777536 L28.147905,10.777536 C28.094688,10.850436 28.041471,10.923336 27.987525,10.995507 L27.987525,10.995507 C27.821313,11.21931 27.64854,11.440926 27.467748,11.658897 L27.467748,11.658897 C27.434943,11.698992 27.403596,11.740545 27.370062,11.781369 L27.370062,11.781369 C27.157923,12.033603 26.936307,12.281463 26.707401,12.524949 L26.707401,12.524949 C26.64981,12.587643 26.589303,12.64815 26.529525,12.709386 L26.529525,12.709386 C26.344359,12.9033 26.152632,13.094298 25.956531,13.28238 L25.956531,13.28238 C25.898211,13.337784 25.84062,13.393917 25.781571,13.449321 L25.781571,13.449321 C25.495074,13.716864 25.196184,13.976388 24.889275,14.230809 L24.889275,14.230809 C24.828039,14.28111 24.766803,14.330682 24.704109,14.380983 L24.704109,14.380983 C24.386994,14.637591 24.06186,14.888367 23.725791,15.129666 L23.725791,15.129666 C23.686425,15.158097 23.645601,15.184341 23.606235,15.212772 L23.606235,15.212772 C23.378058,15.37461 23.144049,15.531345 22.907124,15.686622 L22.907124,15.686622 C22.819644,15.743484 22.729977,15.798888 22.641768,15.855021 L22.641768,15.855021 C22.438377,15.983325 22.232799,16.107984 22.023576,16.230456 L22.023576,16.230456 C21.94776,16.274925 21.871215,16.320852 21.793941,16.364592 L21.793941,16.364592 C21.258855,16.670043 20.707002,16.957998 20.13984,17.224083 L20.13984,17.224083 C20.126718,17.229915 20.115783,17.236476 20.102661,17.242308 L20.102661,17.242308 C19.550808,17.499645 18.984375,17.737299 18.405549,17.954541 L18.405549,17.954541 C18.379305,17.964018 18.353061,17.972037 18.326817,17.982243 L18.326817,17.982243 C17.780796,18.185634 17.223111,18.370071 16.65522,18.534096 L16.65522,18.534096 C16.610022,18.547218 16.564095,18.558153 16.518897,18.571275 L16.518897,18.571275 C15.951735,18.732384 15.374367,18.873081 14.789709,18.992637 L14.789709,18.992637 C14.686191,19.014507 14.582673,19.033461 14.478426,19.053144 L14.478426,19.053144 C14.27139,19.093239 14.062167,19.129689 13.852215,19.163952 L13.852215,19.163952 C13.726827,19.185093 13.60071,19.204776 13.473864,19.22373 L13.473864,19.22373 C13.25808,19.255077 13.040838,19.283508 12.823596,19.309023 L12.823596,19.309023 C12.658842,19.327977 12.493359,19.350576 12.327147,19.366614 L12.327147,19.366614 L12.108447,19.385568 C11.569716,19.432953 11.040462,19.454094 10.516311,19.463571 L10.516311,19.463571 C10.419354,19.466487 10.320939,19.468674 10.223982,19.469403 L10.223982,19.469403 C9.777105,19.47159 9.338247,19.454823 8.904492,19.430766 L8.904492,19.430766 C8.800245,19.425663 8.693811,19.426392 8.591022,19.419102 L8.591022,19.419102 C8.069787,19.381923 7.558758,19.325061 7.056477,19.251432 L7.056477,19.251432 C6.917238,19.230291 6.783831,19.201131 6.64605,19.177803 L6.64605,19.177803 C6.286653,19.116567 5.930901,19.050957 5.583168,18.972225 L5.583168,18.972225 C5.407479,18.931401 5.236893,18.884016 5.063391,18.839547 L5.063391,18.839547 C4.761585,18.760815 4.463424,18.677709 4.171824,18.585855 L4.171824,18.585855 C3.994677,18.530451 3.821175,18.471402 3.649131,18.410895 L3.649131,18.410895 C3.367008,18.31248 3.091446,18.205317 2.820258,18.09378 L2.820258,18.09378 C2.65842,18.026712 2.495853,17.961102 2.339118,17.88966 L2.339118,17.88966 C2.054808,17.761356 1.779975,17.622117 1.508787,17.479233 L1.508787,17.479233 C1.379754,17.412165 1.247076,17.348742 1.121688,17.278029 L1.121688,17.278029 C0.733131,17.059329 0.356238,16.828236 -0.000243,16.581105 L-0.000243,16.581105 L1.373193,21.163599 C1.731132,21.412188 2.108025,21.643281 2.495853,21.861981 L2.495853,21.861981 C2.62197,21.932694 2.754648,21.995388 2.882952,22.063914 L2.882952,22.063914 C3.154869,22.206069 3.428244,22.345308 3.713283,22.472883 L3.713283,22.472883 C3.871476,22.544325 4.033314,22.610664 4.194423,22.676274 L4.194423,22.676274 C4.46634,22.789269 4.741902,22.894974 5.023296,22.994118 L5.023296,22.994118 C5.196069,23.055354 5.369571,23.113674 5.545989,23.169078 L5.545989,23.169078 C5.837589,23.261661 6.136479,23.344767 6.438285,23.42277 L6.438285,23.42277 C6.610329,23.467968 6.780915,23.514624 6.957333,23.554719 L6.957333,23.554719 C7.305066,23.63418 7.661547,23.700519 8.019486,23.761026 L8.019486,23.761026 C8.157996,23.784354 8.292132,23.814243 8.4321,23.835384 L8.4321,23.835384 C8.932194,23.908284 9.443952,23.965146 9.965187,24.002325 L9.965187,24.002325 C10.067976,24.008886 10.175139,24.008157 10.278657,24.013989 L10.278657,24.013989 C10.637325,24.03513 10.997451,24.054813 11.364138,24.057 L11.364138,24.057 C11.441412,24.057 11.520873,24.053355 11.598147,24.053355 L11.598147,24.053355 C11.695104,24.052626 11.79279,24.048981 11.890476,24.047523 L11.890476,24.047523 C12.415356,24.038046 12.94461,24.016176 13.483341,23.96952 L13.483341,23.96952 L13.701312,23.949837 C13.784418,23.941818 13.866795,23.933799 13.949172,23.924322 L13.949172,23.924322 C14.033007,23.915574 14.115384,23.902452 14.199219,23.891517 L14.199219,23.891517 C14.416461,23.866002 14.632974,23.8383 14.8473,23.806953 L14.8473,23.806953 C14.974146,23.788728 15.10245,23.768316 15.229296,23.747175 L15.229296,23.747175 C15.438519,23.712912 15.646284,23.676462 15.852591,23.637096 L15.852591,23.637096 C15.927678,23.622516 16.003494,23.611581 16.078581,23.596272 L16.078581,23.596272 C16.107741,23.59044 16.135443,23.581692 16.164603,23.57586 L16.164603,23.57586 C16.74999,23.456304 17.3259,23.316336 17.893062,23.154498 L17.893062,23.154498 C17.922222,23.146479 17.952111,23.142105 17.980542,23.134086 L17.980542,23.134086 C17.997309,23.128983 18.013347,23.121693 18.029385,23.117319 L18.029385,23.117319 C18.596547,22.952565 19.154232,22.768857 19.700253,22.566195 L19.700253,22.566195 C19.718478,22.558905 19.738161,22.55526 19.756386,22.54797 L19.756386,22.54797 C19.764405,22.545054 19.772424,22.54068 19.781172,22.538493 L19.781172,22.538493 C20.359269,22.321251 20.924244,22.083597 21.476097,21.82626 L21.476097,21.82626 C21.4812,21.824073 21.484845,21.822615 21.489219,21.821157 L21.489219,21.821157 C21.497967,21.816054 21.506715,21.81168 21.514734,21.807306 L21.514734,21.807306 C22.082625,21.541221 22.63302,21.253266 23.168835,20.949273 L23.168835,20.949273 C23.187789,20.93688 23.211117,20.927403 23.231529,20.915739 L23.231529,20.915739 C23.288391,20.882934 23.342337,20.847213 23.399199,20.813679 L23.399199,20.813679 C23.607693,20.691207 23.812542,20.566548 24.015204,20.438973 L24.015204,20.438973 C24.104142,20.38284 24.193809,20.326707 24.282747,20.268387 L24.282747,20.268387 C24.519672,20.115297 24.751494,19.957833 24.979671,19.795995 L24.979671,19.795995 C25.013205,19.772667 25.048926,19.750797 25.083189,19.72674 L25.083189,19.72674 L25.099956,19.713618 C25.436754,19.472319 25.76043,19.220814 26.078274,18.964935 L26.078274,18.964935 C26.140968,18.914634 26.202933,18.864333 26.265627,18.814032 L26.265627,18.814032 C26.571078,18.559611 26.869239,18.299358 27.156465,18.031815 L27.156465,18.031815 C27.17469,18.015048 27.195831,17.998281 27.214056,17.981514 L27.214056,17.981514 C27.254151,17.944335 27.289872,17.903511 27.329967,17.865603 L27.329967,17.865603 C27.526068,17.67825 27.717066,17.487252 27.90369,17.294796 L27.90369,17.294796 C27.964197,17.232102 28.024704,17.170866 28.083024,17.108172 L28.083024,17.108172 C28.311201,16.864686 28.531359,16.617555 28.744227,16.365321 L28.744227,16.365321 C28.777761,16.324497 28.810566,16.281486 28.844829,16.239933 L28.844829,16.239933 C29.022705,16.022691 29.195478,15.803262 29.36169,15.579459 L29.36169,15.579459 C29.415636,15.506559 29.468853,15.433659 29.522799,15.36003 L29.522799,15.36003 C29.697759,15.116544 29.866887,14.869413 30.027267,14.618637 L30.027267,14.618637 C30.041847,14.597496 30.057156,14.574897 30.071007,14.553027 L30.071007,14.553027 C30.242322,14.282568 30.401244,14.007735 30.552876,13.730715 L30.552876,13.730715 C30.594429,13.654899 30.633795,13.579083 30.67389,13.503267 L30.67389,13.503267 C30.792717,13.277277 30.904254,13.049829 31.010688,12.819465 L31.010688,12.819465 C31.039119,12.756771 31.070466,12.694077 31.098168,12.630654 L31.098168,12.630654 C31.223556,12.347802 31.338009,12.062034 31.442985,11.77335 L31.442985,11.77335 C31.467042,11.707011 31.488183,11.641401 31.510053,11.575791 L31.510053,11.575791 C31.591701,11.341053 31.66533,11.104128 31.731669,10.866474 L31.731669,10.866474 C31.744791,10.81836 31.763745,10.772433 31.776867,10.72359 L31.776867,10.72359 C31.784157,10.69443 31.788531,10.664541 31.795821,10.635381 L31.795821,10.635381 C31.881114,10.311705 31.952556,9.986571 32.010147,9.658521 L32.010147,9.658521 C32.019624,9.600201 32.026914,9.541152 32.036391,9.482832 L32.036391,9.482832 C32.084505,9.183213 32.119497,8.882865 32.144283,8.581059 L32.144283,8.581059 C32.147928,8.540964 32.156676,8.502327 32.158134,8.462961 L32.158134,8.462961 C32.161779,8.414847 32.165424,8.366733 32.16834,8.319348 L32.16834,8.319348 C32.180004,8.115957 32.184378,7.915482 32.184378,7.716465 L32.184378,7.716465 L32.184378,7.696053 C32.184378,7.605657 32.183649,7.515261 32.181462,7.424865 L32.181462,7.424865 C32.178546,7.330095 32.170527,7.237512 32.166882,7.143471 L32.166882,7.143471 C32.159592,6.999129 32.157405,6.8526 32.143554,6.710445 L32.143554,6.710445 C32.139909,6.655041 32.129703,6.601095 32.1246,6.545691 L32.1246,6.545691 C32.112936,6.44436 32.099814,6.344487 32.085234,6.243885 L32.085234,6.243885 C32.061177,6.057261 32.032017,5.872095 31.997754,5.689116 L31.997754,5.689116 C31.978071,5.589243 31.959846,5.490828 31.937247,5.392413 L31.937247,5.392413 C31.925583,5.335551 31.917564,5.27796 31.903713,5.221827 L31.903713,5.221827 C31.857786,5.024268 31.805298,4.828167 31.746978,4.634253 L31.746978,4.634253 L30.372813,0.051759 C30.446442,0.29889 30.508407,0.553311 30.563082,0.808461" id="path-73"></path>
        <linearGradient x1="17.6122427%" y1="-2.58900041%" x2="205.932123%" y2="71.54483%" id="linearGradient-75">
            <stop stop-color="#9D51FF" offset="0%"></stop>
            <stop stop-color="#FBFBFB" offset="100%"></stop>
        </linearGradient>
    </defs>
    <g id="🎨-Screen" stroke="none" stroke-width="1" fill="none" fill-rule="evenodd">
        <g id="APP-W-001_스플래시" transform="translate(-158.000000, -455.000000)">
            <g id="illust" transform="translate(125.000000, 320.000000)">
                <g id="pos" filter="url(#filter-1)" transform="translate(70.000000, 179.000000)">
                    <path d="M51.348165,97.7 L107.051835,97.7 C110.615699,97.7 113.827692,99.8495193 115.186798,103.144053 L126.985262,131.744053 C128.8387,136.23687 126.699062,141.381525 122.206246,143.234963 C121.141875,143.674052 120.001683,143.9 118.850299,143.9 L39.5497008,143.9 C34.689595,143.9 30.7497008,139.960106 30.7497008,135.1 C30.7497008,133.948617 30.975649,132.808424 31.4147378,131.744053 L43.213202,103.144053 C44.5723085,99.8495193 47.7843011,97.7 51.348165,97.7 Z" id="Rectangle" fill="url(#linearGradient-2)"></path>
                    <g id="Group-21" transform="translate(154.000000, 23.760000)">
                        <path d="M5.27920112,0.34197504 C8.11674629,0.34197504 9.82942657,1.75831241 9.95634126,4.23152475 L12.8239452,59.2827056 C12.9682271,61.9536916 11.3330316,63.4879993 8.37525147,63.4879993 L3.12632727,63.4879993 L0.247367832,0.34197504 L5.27920112,0.34197504 Z" id="Fill-3" fill="#C5CEE0"></path>
                        <g id="Group-17" transform="translate(8.059301, 59.407543)">
                            <g id="Group-7">
                                <mask id="mask-4" fill="white">
                                    <use xlink:href="#path-3"></use>
                                </mask>
                                <g id="Clip-6"></g>
                                <path d="M4.77306092,0.195417326 L4.77306092,5.02456567 C4.77306092,5.34169755 4.74634204,5.64217481 4.69424022,5.92322167 L4.69424022,1.09476727 C4.74634204,0.813026469 4.77306092,0.513243154 4.77306092,0.195417326" id="Fill-5" fill="#C0C8D8" mask="url(#mask-4)"></path>
                            </g>
                            <g id="Group-10">
                                <mask id="mask-6" fill="white">
                                    <use xlink:href="#path-5"></use>
                                </mask>
                                <g id="Clip-9"></g>
                                <path d="M4.69417343,1.09469787 L4.69417343,5.92315227 C4.64541147,6.18407479 4.57460643,6.42903662 4.48242629,6.6587317 L4.48242629,1.82958336 C4.57460643,1.60058222 4.64541147,1.35492645 4.69417343,1.09469787" id="Fill-8" fill="#BFC7D6" mask="url(#mask-6)"></path>
                            </g>
                            <g id="Group-13">
                                <mask id="mask-8" fill="white">
                                    <use xlink:href="#path-7"></use>
                                </mask>
                                <g id="Clip-12"></g>
                                <path d="M4.4821591,1.82930578 L4.4821591,6.65845413 C4.38997897,6.88814921 4.27508778,7.10188361 4.14015743,7.29826944 L4.14015743,2.46981504 C4.27508778,2.27273527 4.38997897,2.05900087 4.4821591,1.82930578" id="Fill-11" fill="#BDC5D5" mask="url(#mask-8)"></path>
                            </g>
                            <g id="Group-16">
                                <mask id="mask-10" fill="white">
                                    <use xlink:href="#path-9"></use>
                                </mask>
                                <g id="Clip-15"></g>
                                <path d="M4.14035782,2.46967625 L4.14035782,7.29813065 C3.42228789,8.34251465 2.11373069,8.90877202 0.315549986,8.90877202 L0.315549986,4.08031762 C2.11373069,4.08031762 3.42228789,3.51406025 4.14035782,2.46967625" id="Fill-14" fill="#8F9BB3" mask="url(#mask-10)"></path>
                            </g>
                        </g>
                        <polygon id="Fill-18" fill="#8F9BB3" points="3.12699524 68.3165925 8.37525147 68.3165925 8.37525147 63.4881381 3.12699524 63.4881381"></polygon>
                        <polygon id="Fill-20" fill="#BAC2D3" points="3.12659446 63.4880687 3.12659446 68.3165231 0.246967049 5.17119278 0.246967049 0.342044434"></polygon>
                    </g>
                    <polygon id="Fill-22" fill="#8F9BB3" points="161.92 80.96 160.425245 80.96 157.96 32.56 159.407933 32.56"></polygon>
                    <g id="Group-44">
                        <g id="Group-36" transform="translate(152.522393, 109.844798)">
                            <g id="Group-26">
                                <mask id="mask-12" fill="white">
                                    <use xlink:href="#path-11"></use>
                                </mask>
                                <g id="Clip-25"></g>
                                <path d="M5.63570241,0.019094535 L5.63570241,4.84095675 C5.63570241,5.22418322 5.59826509,5.59770776 5.52824345,5.95875838 L5.52824345,1.13689617 C5.59826509,0.775845546 5.63570241,0.401628013 5.63570241,0.019094535" id="Fill-24" fill="#C0C8D8" mask="url(#mask-12)"></path>
                            </g>
                            <g id="Group-29">
                                <mask id="mask-14" fill="white">
                                    <use xlink:href="#path-13"></use>
                                </mask>
                                <g id="Clip-28"></g>
                                <path d="M5.52810479,1.13710406 L5.52810479,5.95896628 C5.45323016,6.34635072 5.33953165,6.71918226 5.19116896,7.07191694 L5.19116896,2.25005473 C5.33953165,1.89662706 5.45323016,1.52448851 5.52810479,1.13710406" id="Fill-27" fill="#BFC7D6" mask="url(#mask-14)"></path>
                            </g>
                            <g id="Group-32">
                                <mask id="mask-16" fill="white">
                                    <use xlink:href="#path-15"></use>
                                </mask>
                                <g id="Clip-31"></g>
                                <path d="M5.19089165,2.25033193 L5.19089165,7.07219414 C5.02797,7.46235056 4.82275805,7.82963814 4.58080208,8.16781991 L4.58080208,3.34526471 C4.82275805,3.00777593 5.02797,2.63979536 5.19089165,2.25033193" id="Fill-30" fill="#BDC5D5" mask="url(#mask-16)"></path>
                            </g>
                            <g id="Group-35">
                                <mask id="mask-18" fill="white">
                                    <use xlink:href="#path-17"></use>
                                </mask>
                                <g id="Clip-34"></g>
                                <path d="M4.5808714,3.34533401 L4.5808714,8.16788921 C3.58808929,9.55595906 1.98175118,10.4554671 0.137616795,10.4554671 L0.137616795,5.63360492 C1.98175118,5.63360492 3.58808929,4.73340386 4.5808714,3.34533401" id="Fill-33" fill="#BBC4D4" mask="url(#mask-18)"></path>
                            </g>
                        </g>
                        <g id="Group-39" transform="translate(0.000000, 109.844798)">
                            <mask id="mask-20" fill="white">
                                <use xlink:href="#path-19"></use>
                            </mask>
                            <g id="Clip-38"></g>
                            <path d="M5.46238151,5.63346632 L5.46238151,10.4553285 C2.39668141,10.4553285 0,7.96955392 0,4.88641725 L0,0.0638620398 C0,3.14699871 2.39668141,5.63346632 5.46238151,5.63346632" id="Fill-37" fill="#BBC4D4" mask="url(#mask-20)"></path>
                        </g>
                        <path d="M147.612627,0.185861375 C150.550763,0.185861375 153.065303,2.47759727 153.202573,5.28700074 L153.876445,19.511425 L157.390006,93.5586798 L158.150538,109.573804 C158.30722,112.810093 155.835664,115.478125 152.659732,115.478125 L5.46245083,115.478125 C2.28721193,115.478125 -0.171865005,112.810093 0.0097752988,109.573804 L5.65587696,5.28700074 C5.81186577,2.47759727 8.3388845,0.185861375 11.278407,0.185861375 L147.612627,0.185861375 Z" id="Fill-40" fill="#DBE1EB"></path>
                        <polygon id="Fill-42" fill="#BAC2D3" points="5.5 120.321862 152.697281 120.321862 152.697281 115.5 5.5 115.5"></polygon>
                    </g>
                    <g id="Fill-46">
                        <use fill="black" fill-opacity="1" filter="url(#filter-22)" xlink:href="#path-21"></use>
                        <use fill="#FFFFFF" fill-rule="evenodd" xlink:href="#path-21"></use>
                        <use fill="black" fill-opacity="1" filter="url(#filter-23)" xlink:href="#path-21"></use>
                    </g>
                    <g id="Fill-49">
                        <use fill="black" fill-opacity="1" filter="url(#filter-25)" xlink:href="#path-24"></use>
                        <use fill="#FFFFFF" fill-rule="evenodd" xlink:href="#path-24"></use>
                        <use fill="black" fill-opacity="1" filter="url(#filter-26)" xlink:href="#path-24"></use>
                    </g>
                    <g id="Fill-52">
                        <use fill="black" fill-opacity="1" filter="url(#filter-28)" xlink:href="#path-27"></use>
                        <use fill="#FFFFFF" fill-rule="evenodd" xlink:href="#path-27"></use>
                        <use fill="black" fill-opacity="1" filter="url(#filter-29)" xlink:href="#path-27"></use>
                    </g>
                    <g id="Fill-54" fill-rule="nonzero">
                        <use fill="black" fill-opacity="1" filter="url(#filter-32)" xlink:href="#path-31"></use>
                        <use fill="url(#linearGradient-30)" xlink:href="#path-31"></use>
                    </g>
                    <g id="Fill-56" fill-rule="nonzero">
                        <use fill="black" fill-opacity="1" filter="url(#filter-35)" xlink:href="#path-34"></use>
                        <use fill="url(#linearGradient-33)" xlink:href="#path-34"></use>
                    </g>
                    <g id="Fill-58" fill-rule="nonzero">
                        <use fill="black" fill-opacity="1" filter="url(#filter-38)" xlink:href="#path-37"></use>
                        <use fill="url(#linearGradient-36)" xlink:href="#path-37"></use>
                    </g>
                    <g id="Fill-60" fill-rule="nonzero">
                        <use fill="black" fill-opacity="1" filter="url(#filter-41)" xlink:href="#path-40"></use>
                        <use fill="url(#linearGradient-39)" xlink:href="#path-40"></use>
                    </g>
                    <g id="Fill-62" fill-rule="nonzero">
                        <use fill="black" fill-opacity="1" filter="url(#filter-44)" xlink:href="#path-43"></use>
                        <use fill="url(#linearGradient-42)" xlink:href="#path-43"></use>
                    </g>
                    <g id="Fill-64" fill-rule="nonzero">
                        <use fill="black" fill-opacity="1" filter="url(#filter-47)" xlink:href="#path-46"></use>
                        <use fill="url(#linearGradient-45)" xlink:href="#path-46"></use>
                    </g>
                    <g id="Fill-66" fill-rule="nonzero">
                        <use fill="black" fill-opacity="1" filter="url(#filter-49)" xlink:href="#path-48"></use>
                        <use fill="url(#linearGradient-30)" xlink:href="#path-48"></use>
                    </g>
                    <g id="Fill-68" fill-rule="nonzero">
                        <use fill="black" fill-opacity="1" filter="url(#filter-52)" xlink:href="#path-51"></use>
                        <use fill="url(#linearGradient-50)" xlink:href="#path-51"></use>
                    </g>
                    <g id="Combined-Shape" fill-rule="nonzero">
                        <use fill="black" fill-opacity="1" filter="url(#filter-54)" xlink:href="#path-53"></use>
                        <use fill="#3366FF" xlink:href="#path-53"></use>
                    </g>
                    <line x1="88.88" y1="40.48" x2="138.16" y2="40.48" id="Stroke-84" stroke="#B9BDD5" stroke-width="3" opacity="0.600000024" stroke-linecap="round" stroke-linejoin="round"></line>
                    <line x1="88.88" y1="46.48" x2="115.28" y2="46.48" id="Stroke-86" stroke="#B9BDD5" stroke-width="3" opacity="0.600000024" stroke-linecap="round" stroke-linejoin="round"></line>
                    <path d="M83.0711746,112.64 L75.3196879,112.64 C74.5441459,112.64 73.914141,111.945702 73.92,111.097837 C73.9252857,110.251414 74.5625019,109.56 75.3360772,109.56 L83.0731414,109.56 C83.8473722,109.56 84.48,110.251414 84.48,111.097837 C84.4806551,111.945702 83.8467167,112.64 83.0711746,112.64" id="Fill-88" fill="#C5CEE0"></path>
                    <g id="Group-33" filter="url(#filter-55)" transform="translate(24.000000, 12.000000)">
                        <polygon id="Fill-1" fill="#11289B" points="18.5000517 7.5339072 19.8749457 12.1171302 20.3028687 4.6733112 18.9287037 0.0900882"></polygon>
                        <g id="Group-4" transform="translate(18.468000, 7.433597)">
                            <mask id="mask-57" fill="white">
                                <use xlink:href="#path-56"></use>
                            </mask>
                            <g id="Clip-3"></g>
                            <path d="M0.031833,0.100602 L1.407456,4.683825 C1.691037,4.664871 1.970973,4.65831 2.246535,4.661226 L2.246535,4.661226 C2.336931,4.661955 2.424411,4.669245 2.514078,4.673619 L2.514078,4.673619 C2.697786,4.680909 2.880036,4.68747 3.057912,4.704237 L3.057912,4.704237 C3.160701,4.714443 3.261303,4.728294 3.362634,4.741416 L3.362634,4.741416 C3.522285,4.761099 3.681936,4.783698 3.837213,4.8114 L3.837213,4.8114 C3.94146,4.829625 4.04352,4.850766 4.144851,4.873365 L4.144851,4.873365 C4.292838,4.904712 4.439367,4.938975 4.581522,4.977612 L4.581522,4.977612 C4.682124,5.004585 4.780539,5.033745 4.877496,5.063634 L4.877496,5.063634 C5.017464,5.106645 5.154516,5.15403 5.289381,5.204331 L5.289381,5.204331 C5.381964,5.238594 5.474547,5.272128 5.563485,5.310036 L5.563485,5.310036 C5.699808,5.36544 5.830299,5.427405 5.960061,5.48937 L5.960061,5.48937 C6.04098,5.528736 6.124086,5.565915 6.202818,5.607468 L6.202818,5.607468 C6.340599,5.681097 6.471819,5.760558 6.60231,5.841477 L6.60231,5.841477 C6.664275,5.880114 6.729885,5.915106 6.790392,5.95593 L6.790392,5.95593 C6.977745,6.080589 7.15635,6.21108 7.324749,6.351048 L7.324749,6.351048 L5.949855,1.767096 C5.782185,1.627857 5.602851,1.497366 5.416956,1.372707 L5.416956,1.372707 C5.35572,1.331883 5.289381,1.295433 5.226687,1.256796 L5.226687,1.256796 C5.096925,1.177335 4.965705,1.097145 4.828653,1.024974 L4.828653,1.024974 C4.749192,0.982692 4.666815,0.944784 4.585896,0.905418 L4.585896,0.905418 C4.456134,0.842724 4.324914,0.782217 4.190049,0.726084 L4.190049,0.726084 C4.100382,0.688905 4.007799,0.653913 3.915216,0.61965 L3.915216,0.61965 C3.779622,0.570078 3.643299,0.523422 3.503331,0.480411 L3.503331,0.480411 C3.406374,0.449793 3.30723,0.422091 3.207357,0.394389 L3.207357,0.394389 C3.064473,0.356481 2.917944,0.321489 2.770686,0.290142 L2.770686,0.290142 C2.668626,0.267543 2.566566,0.245673 2.463048,0.226719 L2.463048,0.226719 C2.307771,0.199017 2.14812,0.178605 1.98774,0.158193 L1.98774,0.158193 C1.886409,0.1458 1.786536,0.130491 1.683747,0.121014 L1.683747,0.121014 C1.505871,0.104976 1.322892,0.096228 1.139913,0.089667 L1.139913,0.089667 C1.050246,0.086751 0.962766,0.079461 0.87237,0.078003 L0.87237,0.078003 C0.854874,0.078003 0.838107,0.075087 0.820611,0.075087 L0.820611,0.075087 C0.802386,0.075087 0.784161,0.075087 0.765207,0.075087 L0.765207,0.075087 C0.524637,0.075087 0.279693,0.083106 0.031833,0.100602" id="Fill-2" fill="url(#linearGradient-58)" mask="url(#mask-57)"></path>
                        </g>
                        <g id="Group-10" transform="translate(18.468000, 0.001847)">
                            <g id="Group-7">
                                <mask id="mask-60" fill="white">
                                    <use xlink:href="#path-59"></use>
                                </mask>
                                <g id="Clip-6"></g>
                                <path d="M0.4602663,0.0884601 C5.4655803,-0.3037419 9.8753013,0.9749241 12.9407463,3.3456321 L5.9503653,9.1987731 C4.5324603,8.0214381 2.4307533,7.3675251 0.0323433,7.5322791 L0.4602663,0.0884601 Z" id="Fill-5" fill="#00E096" mask="url(#mask-60)"></path>
                            </g>
                            <polygon id="Fill-8" fill="#00A66F" points="12.9408192 3.3454863 14.3157132 7.9287093 7.3246032 13.7825793 5.9504382 9.1986273"></polygon>
                        </g>
                        <g id="Group-13" transform="translate(9.355500, 7.433597)">
                            <mask id="mask-62" fill="white">
                                <use xlink:href="#path-61"></use>
                            </mask>
                            <g id="Clip-12"></g>
                            <path d="M8.926362,0.114453 C8.852733,0.121014 8.779104,0.128304 8.704746,0.136323 L8.704746,0.136323 C8.623827,0.1458 8.545095,0.163296 8.463447,0.173502 L8.463447,0.173502 C8.259327,0.199746 8.055207,0.230364 7.854732,0.266814 L7.854732,0.266814 C7.802973,0.27702 7.749756,0.281394 7.697997,0.2916 L7.697997,0.2916 C7.62291,0.30618 7.550739,0.329508 7.476381,0.345546 L7.476381,0.345546 C7.314543,0.381267 7.154892,0.419175 6.995241,0.461457 L6.995241,0.461457 C6.931818,0.479682 6.865479,0.491346 6.802785,0.508842 L6.802785,0.508842 C6.737175,0.527796 6.674481,0.552582 6.611058,0.572994 L6.611058,0.572994 C6.462342,0.618192 6.317271,0.666306 6.171471,0.717336 L6.171471,0.717336 C6.103674,0.741393 6.031503,0.760347 5.963706,0.785862 L5.963706,0.785862 C5.907573,0.807732 5.854356,0.833976 5.797494,0.855846 L5.797494,0.855846 C5.650965,0.913437 5.506623,0.974673 5.363739,1.038096 L5.363739,1.038096 C5.291568,1.069443 5.21721,1.095687 5.147226,1.128492 L5.147226,1.128492 C5.102028,1.149633 5.061933,1.175148 5.018193,1.19556 L5.018193,1.19556 C4.853439,1.275021 4.694517,1.360314 4.534866,1.446336 L4.534866,1.446336 C4.464882,1.485702 4.390524,1.518507 4.321269,1.557873 L4.321269,1.557873 C4.295754,1.571724 4.273884,1.589949 4.248369,1.6038 L4.248369,1.6038 C3.976452,1.76418 3.711096,1.93185 3.46032,2.110455 L3.46032,2.110455 C3.456675,2.113371 3.45303,2.115558 3.450114,2.117016 L3.450114,2.117016 C3.440637,2.123577 3.432618,2.132325 3.422412,2.139615 L3.422412,2.139615 C3.111858,2.364147 2.821716,2.606175 2.545425,2.85768 L2.545425,2.85768 C2.514078,2.886111 2.47617,2.910897 2.444094,2.940786 L2.444094,2.940786 C2.422953,2.961198 2.405457,2.983797 2.383587,3.004938 L2.383587,3.004938 C2.152494,3.225825 1.933065,3.454002 1.73259,3.693114 L1.73259,3.693114 C1.701243,3.729564 1.675728,3.768201 1.644381,3.806109 L1.644381,3.806109 C1.475982,4.013145 1.321434,4.226013 1.177092,4.443984 L1.177092,4.443984 C1.130436,4.516155 1.08378,4.588326 1.039311,4.661226 L1.039311,4.661226 C0.900072,4.890132 0.772497,5.121954 0.663147,5.360337 L0.663147,5.360337 C0.647109,5.393871 0.628155,5.426676 0.613575,5.46021 L0.613575,5.46021 C0.494019,5.728482 0.399978,6.001857 0.319788,6.280335 L0.319788,6.280335 C0.312498,6.308766 0.297189,6.336468 0.289899,6.366357 L0.289899,6.366357 C0.26001,6.474978 0.240327,6.584328 0.217728,6.695136 L0.217728,6.695136 C0.207522,6.745437 0.193671,6.795738 0.184923,6.846768 L0.184923,6.846768 C0.15066,7.039224 0.122958,7.233138 0.110565,7.42851 L0.110565,7.42851 C0.108378,7.45038 0.107649,7.472979 0.106191,7.495578 L0.106191,7.495578 C0.090882,7.752915 0.095256,8.005149 0.117126,8.250822 L0.117126,8.250822 C0.119313,8.276337 0.126603,8.301123 0.12879,8.327367 L0.12879,8.327367 C0.137538,8.409015 0.155034,8.487018 0.168156,8.568666 L0.168156,8.568666 C0.18711,8.696241 0.200961,8.82819 0.230121,8.952849 L0.230121,8.952849 C0.25272,9.046161 0.277506,9.138744 0.304479,9.229869 L0.304479,9.229869 L1.678644,13.813821 C1.615221,13.600224 1.577313,13.376421 1.54305,13.151889 L1.54305,13.151889 C1.530657,13.071699 1.512432,12.992967 1.503684,12.91059 L1.503684,12.91059 C1.475253,12.640131 1.464318,12.36384 1.480356,12.07953 L1.480356,12.07953 C1.493478,11.861559 1.519722,11.645775 1.558359,11.431449 L1.558359,11.431449 C1.567836,11.37969 1.581687,11.329389 1.591893,11.278359 L1.591893,11.278359 C1.621053,11.138391 1.656045,11.001339 1.694682,10.863558 L1.694682,10.863558 C1.774143,10.585809 1.868184,10.310976 1.987011,10.042704 L1.987011,10.042704 C2.00232,10.00917 2.022003,9.977823 2.037312,9.944289 L2.037312,9.944289 C2.147391,9.705906 2.274966,9.473355 2.413476,9.245178 L2.413476,9.245178 C2.458674,9.172278 2.503872,9.100107 2.551986,9.027936 L2.551986,9.027936 C2.695599,8.809965 2.850876,8.596368 3.020004,8.389332 L3.020004,8.389332 C3.049164,8.352153 3.075408,8.313516 3.107484,8.275608 L3.107484,8.275608 C3.307959,8.038683 3.526659,7.809048 3.758481,7.588161 L3.758481,7.588161 C3.81024,7.53786 3.866373,7.489746 3.91959,7.440903 L3.91959,7.440903 C4.195881,7.189398 4.486023,6.94737 4.797306,6.722838 L4.797306,6.722838 C4.810428,6.713361 4.821363,6.703155 4.833756,6.694407 L4.833756,6.694407 C5.086719,6.515073 5.351346,6.347403 5.623263,6.188481 L5.623263,6.188481 C5.716575,6.133077 5.813532,6.082776 5.909031,6.030288 L5.909031,6.030288 C6.067953,5.944266 6.228333,5.858244 6.393087,5.779512 L6.393087,5.779512 C6.506082,5.724108 6.621993,5.672349 6.737175,5.622048 L6.737175,5.622048 C6.880788,5.557896 7.02513,5.49666 7.173117,5.439069 L7.173117,5.439069 C7.29486,5.390226 7.420248,5.345028 7.545636,5.301288 L7.545636,5.301288 C7.691436,5.250258 7.837236,5.201415 7.984494,5.156217 L7.984494,5.156217 C8.112069,5.11758 8.239644,5.080401 8.369406,5.046138 L8.369406,5.046138 C8.528328,5.003127 8.689437,4.965219 8.850546,4.928769 L8.850546,4.928769 C8.975934,4.901067 9.102051,4.874823 9.228897,4.850766 L9.228897,4.850766 C9.43083,4.812858 9.633492,4.783698 9.838341,4.757454 L9.838341,4.757454 C9.99216,4.737042 10.144521,4.711527 10.301256,4.698405 L10.301256,4.698405 C10.37124,4.692573 10.449243,4.685283 10.519956,4.683825 L10.519956,4.683825 L9.144333,0.100602 C9.074349,0.101331 8.997075,0.107892 8.926362,0.114453" id="Fill-11" fill="url(#linearGradient-63)" mask="url(#mask-62)"></path>
                        </g>
                        <g id="Group-16" transform="translate(24.401250, 9.134597)">
                            <mask id="mask-65" fill="white">
                                <use xlink:href="#path-64"></use>
                            </mask>
                            <g id="Clip-15"></g>
                            <path d="M1.391499,4.650048 C2.220372,5.333121 2.81961,6.193341 3.114126,7.176033 L3.114126,7.176033 L1.74069,2.592081 C1.445445,1.609389 0.845478,0.749169 0.017334,0.066096 L0.017334,0.066096 L1.391499,4.650048 Z" id="Fill-14" fill="url(#linearGradient-66)" mask="url(#mask-65)"></path>
                        </g>
                        <g id="Group-19" transform="translate(24.401250, 9.134597)">
                            <mask id="mask-68" fill="white">
                                <use xlink:href="#path-67"></use>
                            </mask>
                            <g id="Clip-18"></g>
                            <path d="M1.739961,2.59281 L3.114126,7.176033 C2.81961,6.192612 2.219643,5.333121 1.391499,4.650048 L0.017334,0.066096 C0.845478,0.74844 1.445445,1.609389 1.739961,2.59281" id="Fill-17" fill="url(#linearGradient-69)" mask="url(#mask-68)"></path>
                        </g>
                        <g id="Group-24" transform="translate(0.000000, 0.022097)">
                            <polygon id="Fill-20" fill="#132BA6" points="11.9642751 19.6024212 13.3391691 24.1856442 6.3553491 30.0336822 4.9804551 25.4497302"></polygon>
                            <path d="M18.9282663,0.0682101 L18.5003433,7.5120291 C18.4296303,7.5134871 18.3530853,7.5200481 18.2816433,7.5258801 C13.6218753,7.9341201 9.6721533,11.2408641 9.4614723,14.9070051 C9.3484773,16.8694731 10.3289823,18.5345091 11.9641293,19.6024941 L4.9803093,25.4498031 C1.7107443,23.1833421 -0.2123577,19.7490231 0.0187353,15.7329621 C0.4656123,7.9596351 8.8352613,0.9510291 18.7095663,0.0871641 L18.9282663,0.0682101 Z" id="Fill-22" fill="#3456FF"></path>
                        </g>
                        <g id="Group-27" transform="translate(0.364500, 19.340597)">
                            <mask id="mask-71" fill="white">
                                <use xlink:href="#path-70"></use>
                            </mask>
                            <g id="Clip-26"></g>
                            <path d="M1.449252,4.680666 C2.176794,7.106778 3.774033,9.179325 5.990193,10.714599 L5.990193,10.714599 L4.616757,6.132105 C2.399868,4.595373 0.8019,2.522826 0.074358,0.096714 L0.074358,0.096714 L1.449252,4.680666 Z" id="Fill-25" fill="url(#linearGradient-72)" mask="url(#mask-71)"></path>
                        </g>
                        <path d="M31.4088192,3.3473331 C34.3146132,5.6057751 35.9913132,8.8600311 35.7748002,12.6267741 C35.3308392,20.3498001 27.0916812,27.3059181 17.3092302,28.2579921 L17.0898012,28.2769461 C12.3075612,28.6953921 8.0472852,27.6004341 4.9803822,25.4724831 L11.9642022,19.6244451 C13.3966872,20.5539201 15.3423882,21.0292281 17.5177242,20.8382301 C17.5884372,20.8323981 17.6657112,20.8258371 17.7371532,20.8141731 C22.2992352,20.3242851 26.1308592,17.0678421 26.3386242,13.4520021 C26.4370392,11.7439551 25.7022072,10.2589821 24.4184382,9.2004741 L31.4088192,3.3473331 Z" id="Fill-28" fill="#9D51FF"></path>
                        <g id="Group-32" transform="translate(4.981500, 8.891597)">
                            <mask id="mask-74" fill="white">
                                <use xlink:href="#path-73"></use>
                            </mask>
                            <g id="Clip-31"></g>
                            <path d="M30.563082,0.808461 C30.584952,0.906147 30.603177,1.00602 30.622131,1.105164 L30.622131,1.105164 C30.656394,1.287414 30.687012,1.47258 30.711798,1.659933 L30.711798,1.659933 C30.725649,1.760535 30.738771,1.861137 30.748977,1.963197 L30.748977,1.963197 C30.770118,2.159298 30.782511,2.357586 30.791988,2.558061 L30.791988,2.558061 C30.797091,2.652102 30.804381,2.746872 30.806568,2.841642 L30.806568,2.841642 C30.813129,3.136887 30.810942,3.43359 30.793446,3.735396 L30.793446,3.735396 C30.788343,3.822876 30.777408,3.910356 30.770118,3.996378 L30.770118,3.996378 C30.746061,4.298913 30.709611,4.59999 30.661497,4.89888 L30.661497,4.89888 C30.652749,4.9572 30.645459,5.016249 30.635253,5.07384 L30.635253,5.07384 C30.577662,5.40189 30.505491,5.728482 30.420927,6.052158 L30.420927,6.052158 C30.401244,6.129432 30.379374,6.205977 30.357504,6.282522 L30.357504,6.282522 C30.290436,6.520905 30.216807,6.75783 30.135888,6.992568 L30.135888,6.992568 C30.11256,7.058178 30.092148,7.124517 30.06882,7.190127 L30.06882,7.190127 C29.964573,7.478811 29.848662,7.764579 29.723274,8.04816 L29.723274,8.04816 C29.696301,8.110854 29.664954,8.17209 29.636523,8.234055 L29.636523,8.234055 C29.530818,8.465148 29.417823,8.694054 29.298267,8.920773 L29.298267,8.920773 C29.258901,8.996589 29.220264,9.072405 29.178711,9.146763 L29.178711,9.146763 C29.027808,9.423783 28.868157,9.698616 28.696842,9.969804 L28.696842,9.969804 C28.68372,9.990945 28.668411,10.012086 28.65456,10.032498 L28.65456,10.032498 C28.49418,10.284732 28.324323,10.532592 28.147905,10.777536 L28.147905,10.777536 C28.094688,10.850436 28.041471,10.923336 27.987525,10.995507 L27.987525,10.995507 C27.821313,11.21931 27.64854,11.440926 27.467748,11.658897 L27.467748,11.658897 C27.434943,11.698992 27.403596,11.740545 27.370062,11.781369 L27.370062,11.781369 C27.157923,12.033603 26.936307,12.281463 26.707401,12.524949 L26.707401,12.524949 C26.64981,12.587643 26.589303,12.64815 26.529525,12.709386 L26.529525,12.709386 C26.344359,12.9033 26.152632,13.094298 25.956531,13.28238 L25.956531,13.28238 C25.898211,13.337784 25.84062,13.393917 25.781571,13.449321 L25.781571,13.449321 C25.495074,13.716864 25.196184,13.976388 24.889275,14.230809 L24.889275,14.230809 C24.828039,14.28111 24.766803,14.330682 24.704109,14.380983 L24.704109,14.380983 C24.386994,14.637591 24.06186,14.888367 23.725791,15.129666 L23.725791,15.129666 C23.686425,15.158097 23.645601,15.184341 23.606235,15.212772 L23.606235,15.212772 C23.378058,15.37461 23.144049,15.531345 22.907124,15.686622 L22.907124,15.686622 C22.819644,15.743484 22.729977,15.798888 22.641768,15.855021 L22.641768,15.855021 C22.438377,15.983325 22.232799,16.107984 22.023576,16.230456 L22.023576,16.230456 C21.94776,16.274925 21.871215,16.320852 21.793941,16.364592 L21.793941,16.364592 C21.258855,16.670043 20.707002,16.957998 20.13984,17.224083 L20.13984,17.224083 C20.126718,17.229915 20.115783,17.236476 20.102661,17.242308 L20.102661,17.242308 C19.550808,17.499645 18.984375,17.737299 18.405549,17.954541 L18.405549,17.954541 C18.379305,17.964018 18.353061,17.972037 18.326817,17.982243 L18.326817,17.982243 C17.780796,18.185634 17.223111,18.370071 16.65522,18.534096 L16.65522,18.534096 C16.610022,18.547218 16.564095,18.558153 16.518897,18.571275 L16.518897,18.571275 C15.951735,18.732384 15.374367,18.873081 14.789709,18.992637 L14.789709,18.992637 C14.686191,19.014507 14.582673,19.033461 14.478426,19.053144 L14.478426,19.053144 C14.27139,19.093239 14.062167,19.129689 13.852215,19.163952 L13.852215,19.163952 C13.726827,19.185093 13.60071,19.204776 13.473864,19.22373 L13.473864,19.22373 C13.25808,19.255077 13.040838,19.283508 12.823596,19.309023 L12.823596,19.309023 C12.658842,19.327977 12.493359,19.350576 12.327147,19.366614 L12.327147,19.366614 L12.108447,19.385568 C11.569716,19.432953 11.040462,19.454094 10.516311,19.463571 L10.516311,19.463571 C10.419354,19.466487 10.320939,19.468674 10.223982,19.469403 L10.223982,19.469403 C9.777105,19.47159 9.338247,19.454823 8.904492,19.430766 L8.904492,19.430766 C8.800245,19.425663 8.693811,19.426392 8.591022,19.419102 L8.591022,19.419102 C8.069787,19.381923 7.558758,19.325061 7.056477,19.251432 L7.056477,19.251432 C6.917238,19.230291 6.783831,19.201131 6.64605,19.177803 L6.64605,19.177803 C6.286653,19.116567 5.930901,19.050957 5.583168,18.972225 L5.583168,18.972225 C5.407479,18.931401 5.236893,18.884016 5.063391,18.839547 L5.063391,18.839547 C4.761585,18.760815 4.463424,18.677709 4.171824,18.585855 L4.171824,18.585855 C3.994677,18.530451 3.821175,18.471402 3.649131,18.410895 L3.649131,18.410895 C3.367008,18.31248 3.091446,18.205317 2.820258,18.09378 L2.820258,18.09378 C2.65842,18.026712 2.495853,17.961102 2.339118,17.88966 L2.339118,17.88966 C2.054808,17.761356 1.779975,17.622117 1.508787,17.479233 L1.508787,17.479233 C1.379754,17.412165 1.247076,17.348742 1.121688,17.278029 L1.121688,17.278029 C0.733131,17.059329 0.356238,16.828236 -0.000243,16.581105 L-0.000243,16.581105 L1.373193,21.163599 C1.731132,21.412188 2.108025,21.643281 2.495853,21.861981 L2.495853,21.861981 C2.62197,21.932694 2.754648,21.995388 2.882952,22.063914 L2.882952,22.063914 C3.154869,22.206069 3.428244,22.345308 3.713283,22.472883 L3.713283,22.472883 C3.871476,22.544325 4.033314,22.610664 4.194423,22.676274 L4.194423,22.676274 C4.46634,22.789269 4.741902,22.894974 5.023296,22.994118 L5.023296,22.994118 C5.196069,23.055354 5.369571,23.113674 5.545989,23.169078 L5.545989,23.169078 C5.837589,23.261661 6.136479,23.344767 6.438285,23.42277 L6.438285,23.42277 C6.610329,23.467968 6.780915,23.514624 6.957333,23.554719 L6.957333,23.554719 C7.305066,23.63418 7.661547,23.700519 8.019486,23.761026 L8.019486,23.761026 C8.157996,23.784354 8.292132,23.814243 8.4321,23.835384 L8.4321,23.835384 C8.932194,23.908284 9.443952,23.965146 9.965187,24.002325 L9.965187,24.002325 C10.067976,24.008886 10.175139,24.008157 10.278657,24.013989 L10.278657,24.013989 C10.637325,24.03513 10.997451,24.054813 11.364138,24.057 L11.364138,24.057 C11.441412,24.057 11.520873,24.053355 11.598147,24.053355 L11.598147,24.053355 C11.695104,24.052626 11.79279,24.048981 11.890476,24.047523 L11.890476,24.047523 C12.415356,24.038046 12.94461,24.016176 13.483341,23.96952 L13.483341,23.96952 L13.701312,23.949837 C13.784418,23.941818 13.866795,23.933799 13.949172,23.924322 L13.949172,23.924322 C14.033007,23.915574 14.115384,23.902452 14.199219,23.891517 L14.199219,23.891517 C14.416461,23.866002 14.632974,23.8383 14.8473,23.806953 L14.8473,23.806953 C14.974146,23.788728 15.10245,23.768316 15.229296,23.747175 L15.229296,23.747175 C15.438519,23.712912 15.646284,23.676462 15.852591,23.637096 L15.852591,23.637096 C15.927678,23.622516 16.003494,23.611581 16.078581,23.596272 L16.078581,23.596272 C16.107741,23.59044 16.135443,23.581692 16.164603,23.57586 L16.164603,23.57586 C16.74999,23.456304 17.3259,23.316336 17.893062,23.154498 L17.893062,23.154498 C17.922222,23.146479 17.952111,23.142105 17.980542,23.134086 L17.980542,23.134086 C17.997309,23.128983 18.013347,23.121693 18.029385,23.117319 L18.029385,23.117319 C18.596547,22.952565 19.154232,22.768857 19.700253,22.566195 L19.700253,22.566195 C19.718478,22.558905 19.738161,22.55526 19.756386,22.54797 L19.756386,22.54797 C19.764405,22.545054 19.772424,22.54068 19.781172,22.538493 L19.781172,22.538493 C20.359269,22.321251 20.924244,22.083597 21.476097,21.82626 L21.476097,21.82626 C21.4812,21.824073 21.484845,21.822615 21.489219,21.821157 L21.489219,21.821157 C21.497967,21.816054 21.506715,21.81168 21.514734,21.807306 L21.514734,21.807306 C22.082625,21.541221 22.63302,21.253266 23.168835,20.949273 L23.168835,20.949273 C23.187789,20.93688 23.211117,20.927403 23.231529,20.915739 L23.231529,20.915739 C23.288391,20.882934 23.342337,20.847213 23.399199,20.813679 L23.399199,20.813679 C23.607693,20.691207 23.812542,20.566548 24.015204,20.438973 L24.015204,20.438973 C24.104142,20.38284 24.193809,20.326707 24.282747,20.268387 L24.282747,20.268387 C24.519672,20.115297 24.751494,19.957833 24.979671,19.795995 L24.979671,19.795995 C25.013205,19.772667 25.048926,19.750797 25.083189,19.72674 L25.083189,19.72674 L25.099956,19.713618 C25.436754,19.472319 25.76043,19.220814 26.078274,18.964935 L26.078274,18.964935 C26.140968,18.914634 26.202933,18.864333 26.265627,18.814032 L26.265627,18.814032 C26.571078,18.559611 26.869239,18.299358 27.156465,18.031815 L27.156465,18.031815 C27.17469,18.015048 27.195831,17.998281 27.214056,17.981514 L27.214056,17.981514 C27.254151,17.944335 27.289872,17.903511 27.329967,17.865603 L27.329967,17.865603 C27.526068,17.67825 27.717066,17.487252 27.90369,17.294796 L27.90369,17.294796 C27.964197,17.232102 28.024704,17.170866 28.083024,17.108172 L28.083024,17.108172 C28.311201,16.864686 28.531359,16.617555 28.744227,16.365321 L28.744227,16.365321 C28.777761,16.324497 28.810566,16.281486 28.844829,16.239933 L28.844829,16.239933 C29.022705,16.022691 29.195478,15.803262 29.36169,15.579459 L29.36169,15.579459 C29.415636,15.506559 29.468853,15.433659 29.522799,15.36003 L29.522799,15.36003 C29.697759,15.116544 29.866887,14.869413 30.027267,14.618637 L30.027267,14.618637 C30.041847,14.597496 30.057156,14.574897 30.071007,14.553027 L30.071007,14.553027 C30.242322,14.282568 30.401244,14.007735 30.552876,13.730715 L30.552876,13.730715 C30.594429,13.654899 30.633795,13.579083 30.67389,13.503267 L30.67389,13.503267 C30.792717,13.277277 30.904254,13.049829 31.010688,12.819465 L31.010688,12.819465 C31.039119,12.756771 31.070466,12.694077 31.098168,12.630654 L31.098168,12.630654 C31.223556,12.347802 31.338009,12.062034 31.442985,11.77335 L31.442985,11.77335 C31.467042,11.707011 31.488183,11.641401 31.510053,11.575791 L31.510053,11.575791 C31.591701,11.341053 31.66533,11.104128 31.731669,10.866474 L31.731669,10.866474 C31.744791,10.81836 31.763745,10.772433 31.776867,10.72359 L31.776867,10.72359 C31.784157,10.69443 31.788531,10.664541 31.795821,10.635381 L31.795821,10.635381 C31.881114,10.311705 31.952556,9.986571 32.010147,9.658521 L32.010147,9.658521 C32.019624,9.600201 32.026914,9.541152 32.036391,9.482832 L32.036391,9.482832 C32.084505,9.183213 32.119497,8.882865 32.144283,8.581059 L32.144283,8.581059 C32.147928,8.540964 32.156676,8.502327 32.158134,8.462961 L32.158134,8.462961 C32.161779,8.414847 32.165424,8.366733 32.16834,8.319348 L32.16834,8.319348 C32.180004,8.115957 32.184378,7.915482 32.184378,7.716465 L32.184378,7.716465 L32.184378,7.696053 C32.184378,7.605657 32.183649,7.515261 32.181462,7.424865 L32.181462,7.424865 C32.178546,7.330095 32.170527,7.237512 32.166882,7.143471 L32.166882,7.143471 C32.159592,6.999129 32.157405,6.8526 32.143554,6.710445 L32.143554,6.710445 C32.139909,6.655041 32.129703,6.601095 32.1246,6.545691 L32.1246,6.545691 C32.112936,6.44436 32.099814,6.344487 32.085234,6.243885 L32.085234,6.243885 C32.061177,6.057261 32.032017,5.872095 31.997754,5.689116 L31.997754,5.689116 C31.978071,5.589243 31.959846,5.490828 31.937247,5.392413 L31.937247,5.392413 C31.925583,5.335551 31.917564,5.27796 31.903713,5.221827 L31.903713,5.221827 C31.857786,5.024268 31.805298,4.828167 31.746978,4.634253 L31.746978,4.634253 L30.372813,0.051759 C30.446442,0.29889 30.508407,0.553311 30.563082,0.808461" id="Fill-30" fill="url(#linearGradient-75)" mask="url(#mask-74)"></path>
                        </g>
                    </g>
                </g>
            </g>
        </g>
    </g>
</svg>